# xmcd
#
# Track frame offsets: 
#        150
#        12191
#        21966
#        35790
#        44574
#        53823
#        66652
#        74798
#        88970
#        97599
#        111547
#        129409
#        147017
#        157810
#        168382
#        183958
#        201537
#        213702
#        227180
#        244900
#        256139
#        265178
#        279533
#        284936
#        288688
#        295692
#
# Disc length: 4121 seconds
#
# Revision: 0
# Processed by: cddbd v1.5.1PL0 Copyright (c) Steve Scherf et al.
# Submitted via: ExactAudioCopy v0.95b3
#
DISCID=a810171a
DTITLE=Georges Brassens - Brassens Intégral 1
DYEAR=1900
DGENRE=Français
TTITLE0=Une jolie fleur
TTITLE1=Gastibelza
TTITLE2=La prière
TTITLE3=Hécatombe
TTITLE4=La chasse aux papillons
TTITLE5=Corne d'Aurochs
TTITLE6=Marinette
TTITLE7=La légende de la nonne
TTITLE8=Colombine
TTITLE9=Auprès de mon arbre
TTITLE10=Le testament
TTITLE11=Je me suis fait tout petit
TTITLE12=Les croquants
TTITLE13=L'amandier
TTITLE14=Oncle Archibald
TTITLE15=La marche nuptiale
TTITLE16=Les lilas
TTITLE17=Au bois de mon coeur
TTITLE18=Grand père
TTITLE19=Celui qui a mal tourné
TTITLE20=Tonton Nestor
TTITLE21=La ballade des cimetières
TTITLE22=L'enterrement de Verlaine
TTITLE23=Germaine Tourangelle
TTITLE24=A mireille dit "Petit Verglas"
TTITLE25=Le temps passé
EXTD=
EXTT0=
EXTT1=
EXTT2=
EXTT3=
EXTT4=
EXTT5=
EXTT6=
EXTT7=
EXTT8=
EXTT9=
EXTT10=
EXTT11=
EXTT12=
EXTT13=
EXTT14=
EXTT15=
EXTT16=
EXTT17=
EXTT18=
EXTT19=
EXTT20=
EXTT21=
EXTT22=
EXTT23=
EXTT24=
EXTT25=
PLAYORDER=
